<?xml version="1.0" encoding="utf-8"?>
<svg version="1.1" xmlns:xlink="http://www.w3.org/1999/xlink" width="150px" height="150px" xmlns="http://www.w3.org/2000/svg">
  <g transform="matrix(1 0 0 1 -131 -16 )">
    <path d="M 131 16  L 281 16  L 281 166  L 131 166  L 131 16  " fill-rule="nonzero" fill="#cccccc" stroke="none" />
    <path d="M 142 27  L 270 27  L 270 155  L 142 155  L 142 27  " fill-rule="nonzero" fill="#ffffff" stroke="none" />
    <path d="M 220.25 61  C 213.95 61  209 56.05  209 49.75  C 209 43.45  213.95 38.5  220.25 38.5  C 226.55 38.5  231.5 43.45  231.5 49.75  C 231.5 56.05  226.55 61  220.25 61  " fill-rule="nonzero" fill="#cccccc" stroke="none" />
    <path d="M 146 151  L 146 85  L 176 55  L 218 79  L 242 73  L 266 79  L 266 151  L 146 151  " fill-rule="nonzero" fill="#169bd5" stroke="none" />
  </g>
</svg>