<?xml version="1.0" encoding="utf-8"?>
<svg version="1.1" xmlns:xlink="http://www.w3.org/1999/xlink" width="35px" height="35px" xmlns="http://www.w3.org/2000/svg">
  <g transform="matrix(1 0 0 1 -350 -286 )">
    <path d="M 3.171875 0  L 31.828125 0  C 32.2473958333333 0  32.6484375 0.0693985459352287  33.03125 0.208195637805686  C 33.6328125 0.408680326063005  34.111328125 0.724829257545713  34.466796875 1.1566424322538  C 34.822265625 1.58845560696188  35 2.06653447896012  35 2.59087904824851  L 35 32.4091209517515  C 35 32.9334655210399  34.822265625 33.4115443930381  34.466796875 33.8433575677462  C 34.111328125 34.2751707424543  33.6328125 34.591319673937  33.03125 34.7918043621943  C 32.6848958333333 34.915179554968  32.2838541666667 34.9768671513549  31.828125 34.9768671513549  C 30.953125 34.9768671513549  30.1966145833333 34.7301167658074  29.55859375 34.2366159947125  L 17.5 24.4282881692003  L 5.44140625 34.2366159947125  C 4.78515625 34.7455386649042  4.02864583333333 35  3.171875 35  C 2.75260416666667 35  2.3515625 34.9306014540648  1.96875 34.7918043621943  C 1.3671875 34.591319673937  0.888671875 34.2751707424543  0.533203125 33.8433575677462  C 0.177734375 33.4115443930381  0 32.9334655210399  0 32.4091209517515  L 0 2.59087904824851  C 0 2.06653447896012  0.177734375 1.58845560696188  0.533203125 1.1566424322538  C 0.888671875 0.724829257545713  1.3671875 0.408680326063005  1.96875 0.208195637805686  C 2.3515625 0.0693985459352287  2.75260416666667 0  3.171875 0  Z " fill-rule="nonzero" fill="#d7d7d7" stroke="none" transform="matrix(1 0 0 1 350 286 )" />
  </g>
</svg>