<?xml version="1.0" encoding="utf-8"?>
<svg version="1.1" xmlns:xlink="http://www.w3.org/1999/xlink" width="40px" height="40px" xmlns="http://www.w3.org/2000/svg">
  <g transform="matrix(1 0 0 1 -15 -9 )">
    <path d="M 35 9  C 46.2 9  55 17.8  55 29  C 55 40.2  46.2 49  35 49  C 23.8 49  15 40.2  15 29  C 15 17.8  23.8 9  35 9  Z " fill-rule="nonzero" fill="#ffffff" stroke="none" />
    <path d="M 35 9.5  C 45.92 9.5  54.5 18.08  54.5 29  C 54.5 39.92  45.92 48.5  35 48.5  C 24.08 48.5  15.5 39.92  15.5 29  C 15.5 18.08  24.08 9.5  35 9.5  Z " stroke-width="1" stroke="#797979" fill="none" />
  </g>
</svg>