<?xml version="1.0" encoding="utf-8"?>
<svg version="1.1" xmlns:xlink="http://www.w3.org/1999/xlink" width="50px" height="50px" xmlns="http://www.w3.org/2000/svg">
  <g transform="matrix(1 0 0 1 -40 -15 )">
    <path d="M 40 15  L 90 15  L 90 65  L 40 65  L 40 15  " fill-rule="nonzero" fill="#cccccc" stroke="none" />
    <path d="M 44 19  L 86 19  L 86 61  L 44 61  L 44 19  " fill-rule="nonzero" fill="#ffffff" stroke="none" />
    <path d="M 69.75 30  C 67.65 30  66 28.35  66 26.25  C 66 24.15  67.65 22.5  69.75 22.5  C 71.85 22.5  73.5 24.15  73.5 26.25  C 73.5 28.35  71.85 30  69.75 30  " fill-rule="nonzero" fill="#cccccc" stroke="none" />
    <path d="M 46 60  L 46 38.55  L 55.75 28.8  L 69.4 36.6  L 77.2 34.65  L 85 36.6  L 85 60  L 46 60  " fill-rule="nonzero" fill="#169bd5" stroke="none" />
  </g>
</svg>