<?xml version="1.0" encoding="utf-8"?>
<svg version="1.1" xmlns:xlink="http://www.w3.org/1999/xlink" width="20px" height="30px" xmlns="http://www.w3.org/2000/svg">
  <g transform="matrix(1 0 0 1 -102 -7 )">
    <path d="M 1.8125 0  L 18.1875 0  C 18.4270833333333 0  18.65625 0.0594844679444817  18.875 0.178453403833445  C 19.21875 0.350297422339718  19.4921875 0.621282220753469  19.6953125 0.991407799074686  C 19.8984375 1.3615333773959  20 1.7713152676801  20 2.2207534699273  L 20 27.7792465300727  C 20 28.2286847323199  19.8984375 28.6384666226041  19.6953125 29.0085922009253  C 19.4921875 29.3787177792465  19.21875 29.6497025776603  18.875 29.8215465961666  C 18.6770833333333 29.9272967614012  18.4479166666667 29.9801718440185  18.1875 29.9801718440185  C 17.6875 29.9801718440185  17.2552083333333 29.7686715135492  16.890625 29.3456708526107  L 10 20.9385327164574  L 3.109375 29.3456708526107  C 2.734375 29.7818902842036  2.30208333333333 30  1.8125 30  C 1.57291666666667 30  1.34375 29.9405155320555  1.125 29.8215465961666  C 0.78125 29.6497025776603  0.5078125 29.3787177792465  0.3046875 29.0085922009253  C 0.1015625 28.6384666226041  0 28.2286847323199  0 27.7792465300727  L 0 2.2207534699273  C 0 1.7713152676801  0.1015625 1.3615333773959  0.3046875 0.991407799074686  C 0.5078125 0.621282220753469  0.78125 0.350297422339718  1.125 0.178453403833445  C 1.34375 0.0594844679444817  1.57291666666667 0  1.8125 0  Z " fill-rule="nonzero" fill="#d7d7d7" stroke="none" transform="matrix(1 0 0 1 102 7 )" />
  </g>
</svg>