<?xml version="1.0" encoding="utf-8"?>
<svg version="1.1" xmlns:xlink="http://www.w3.org/1999/xlink" width="100px" height="100px" xmlns="http://www.w3.org/2000/svg">
  <g transform="matrix(1 0 0 1 -40 -15 )">
    <path d="M 40 15  L 140 15  L 140 115  L 40 115  L 40 15  " fill-rule="nonzero" fill="#cccccc" stroke="none" />
    <path d="M 47 22  L 133 22  L 133 108  L 47 108  L 47 22  " fill-rule="nonzero" fill="#ffffff" stroke="none" />
    <path d="M 99.5 45  C 95.3 45  92 41.7  92 37.5  C 92 33.3  95.3 30  99.5 30  C 103.7 30  107 33.3  107 37.5  C 107 41.7  103.7 45  99.5 45  " fill-rule="nonzero" fill="#cccccc" stroke="none" />
    <path d="M 50 106  L 50 61.45  L 70.25 41.2  L 98.6 57.4  L 114.8 53.35  L 131 57.4  L 131 106  L 50 106  " fill-rule="nonzero" fill="#169bd5" stroke="none" />
  </g>
</svg>