<?xml version="1.0" encoding="utf-8"?>
<svg version="1.1" xmlns:xlink="http://www.w3.org/1999/xlink" width="80px" height="80px" xmlns="http://www.w3.org/2000/svg">
  <g transform="matrix(1 0 0 1 -264 -15 )">
    <path d="M 264 15  L 344 15  L 344 95  L 264 95  L 264 15  " fill-rule="nonzero" fill="#cccccc" stroke="none" />
    <path d="M 270 21  L 338 21  L 338 89  L 270 89  L 270 21  " fill-rule="nonzero" fill="#ffffff" stroke="none" />
    <path d="M 311.6 39  C 308.24 39  305.6 36.36  305.6 33  C 305.6 29.64  308.24 27  311.6 27  C 314.96 27  317.6 29.64  317.6 33  C 317.6 36.36  314.96 39  311.6 39  " fill-rule="nonzero" fill="#cccccc" stroke="none" />
    <path d="M 272 87  L 272 51.8  L 288 35.8  L 310.4 48.6  L 323.2 45.4  L 336 48.6  L 336 87  L 272 87  " fill-rule="nonzero" fill="#169bd5" stroke="none" />
  </g>
</svg>