<?xml version="1.0" encoding="utf-8"?>
<svg version="1.1" xmlns:xlink="http://www.w3.org/1999/xlink" width="20px" height="30px" xmlns="http://www.w3.org/2000/svg">
  <g transform="matrix(1 0 0 1 -21 -6 )">
    <path d="M 12.9081081081081 22.78125  C 13.0810810810811 22.96875  13.1675675675676 23.1875  13.1675675675676 23.4375  L 13.1675675675676 29.0625  C 13.1675675675676 29.3125  13.0810810810811 29.53125  12.9081081081081 29.71875  C 12.7351351351351 29.90625  12.5333333333333 30  12.3027027027027 30  L 7.11351351351351 30  C 6.88288288288288 30  6.68108108108108 29.90625  6.50810810810811 29.71875  C 6.33513513513513 29.53125  6.24864864864865 29.3125  6.24864864864865 29.0625  L 6.24864864864865 23.4375  C 6.24864864864865 23.1875  6.33513513513513 22.96875  6.50810810810811 22.78125  C 6.68108108108108 22.59375  6.88288288288288 22.5  7.11351351351351 22.5  L 12.3027027027027 22.5  C 12.5333333333333 22.5  12.7351351351351 22.59375  12.9081081081081 22.78125  Z M 19.1135135135135 5.66015625  C 19.7045045045045 6.83984375  20 8.078125  20 9.375  C 20 10.21875  19.8882882882883 11.0078125  19.6648648648649 11.7421875  C 19.4414414414414 12.4765625  19.1891891891892 13.07421875  18.9081081081081 13.53515625  C 18.627027027027 13.99609375  18.2306306306306 14.4609375  17.7189189189189 14.9296875  C 17.2072072072072 15.3984375  16.7927927927928 15.73828125  16.4756756756757 15.94921875  C 16.1585585585586 16.16015625  15.7189189189189 16.4375  15.1567567567568 16.78125  C 14.5657657657658 17.140625  14.0720720720721 17.6484375  13.6756756756757 18.3046875  C 13.2792792792793 18.9609375  13.0810810810811 19.484375  13.0810810810811 19.875  C 13.0810810810811 20.140625  12.9945945945946 20.39453125  12.8216216216216 20.63671875  C 12.6486486486486 20.87890625  12.4468468468468 21  12.2162162162162 21  L 7.02702702702703 21  C 6.81081081081081 21  6.62702702702703 20.85546875  6.47567567567568 20.56640625  C 6.32432432432432 20.27734375  6.24864864864865 19.984375  6.24864864864865 19.6875  L 6.24864864864865 18.6328125  C 6.24864864864865 17.3359375  6.71711711711712 16.11328125  7.65405405405405 14.96484375  C 8.59099099099099 13.81640625  9.62162162162162 12.96875  10.7459459459459 12.421875  C 11.5963963963964 12  12.2018018018018 11.5625  12.5621621621622 11.109375  C 12.9225225225225 10.65625  13.1027027027027 10.0625  13.1027027027027 9.328125  C 13.1027027027027 8.671875  12.7675675675676 8.09375  12.0972972972973 7.59375  C 11.427027027027 7.09375  10.6522522522523 6.84375  9.77297297297297 6.84375  C 8.83603603603604 6.84375  8.05765765765766 7.0703125  7.43783783783784 7.5234375  C 6.93333333333333 7.9140625  6.16216216216216 8.8125  5.12432432432432 10.21875  C 4.93693693693694 10.46875  4.71351351351351 10.59375  4.45405405405405 10.59375  C 4.28108108108108 10.59375  4.1009009009009 10.53125  3.91351351351351 10.40625  L 0.367567567567568 7.4765625  C 0.18018018018018 7.3203125  0.0684684684684689 7.125  0.0324324324324324 6.890625  C -0.0036036036036034 6.65625  0.0360360360360361 6.4375  0.151351351351351 6.234375  C 2.45765765765766 2.078125  5.8018018018018 0  10.1837837837838 0  C 11.3369369369369 0  12.4972972972973 0.2421875  13.6648648648649 0.726562499999999  C 14.8324324324324 1.2109375  15.8846846846847 1.859375  16.8216216216216 2.671875  C 17.7585585585586 3.484375  18.5225225225225 4.48046874999999  19.1135135135135 5.66015625  Z " fill-rule="nonzero" fill="#000000" stroke="none" transform="matrix(1 0 0 1 21 6 )" />
  </g>
</svg>