<?xml version="1.0" encoding="utf-8"?>
<svg version="1.1" xmlns:xlink="http://www.w3.org/1999/xlink" width="90px" height="90px" xmlns="http://www.w3.org/2000/svg">
  <defs>
    <mask fill="white" id="clip2">
      <path d="M 66 114.5  C 41.3025 114.5  21.5 94.6975  21.5 70  L 21.5 70  C 21.5 45.3025  41.3025 25.5  66 25.5  L 66 25.5  C 90.6975 25.5  110.5 45.3025  110.5 70  L 110.5 70  C 110.5 94.6975  90.6975 114.5  66 114.5  L 66 114.5  " fill-rule="evenodd" />
    </mask>
  </defs>
  <g transform="matrix(1 0 0 1 -21 -25 )">
    <path d="M 21 25  L 111 25  L 111 115  L 21 115  L 21 25  " fill-rule="nonzero" fill="#cccccc" stroke="none" mask="url(#clip2)" />
    <path d="M 27 31  L 105 31  L 105 109  L 27 109  L 27 31  " fill-rule="nonzero" fill="#ffffff" stroke="none" mask="url(#clip2)" />
    <path d="M 74.55 52  C 70.77 52  67.8 49.03  67.8 45.25  C 67.8 41.47  70.77 38.5  74.55 38.5  C 78.33 38.5  81.3 41.47  81.3 45.25  C 81.3 49.03  78.33 52  74.55 52  " fill-rule="nonzero" fill="#cccccc" stroke="none" mask="url(#clip2)" />
    <path d="M 30 107  L 30 66.85  L 48.25 48.6  L 73.8 63.2  L 88.4 59.55  L 103 63.2  L 103 107  L 30 107  " fill-rule="nonzero" fill="#169bd5" stroke="none" mask="url(#clip2)" />
    <path d="M 66 114.5  C 41.3025 114.5  21.5 94.6975  21.5 70  L 21.5 70  C 21.5 45.3025  41.3025 25.5  66 25.5  L 66 25.5  C 90.6975 25.5  110.5 45.3025  110.5 70  L 110.5 70  C 110.5 94.6975  90.6975 114.5  66 114.5  L 66 114.5  Z " stroke-width="1" stroke="#000000" fill="none" mask="url(#clip2)" />
  </g>
</svg>