<?xml version="1.0" encoding="utf-8"?>
<svg version="1.1" xmlns:xlink="http://www.w3.org/1999/xlink" width="152px" height="195px" xmlns="http://www.w3.org/2000/svg">
  <g transform="matrix(1 0 0 1 -241 -180 )">
    <path d="M 241 180  L 393 180  L 393 375  L 241 375  L 241 180  " fill-rule="nonzero" fill="#cccccc" stroke="none" />
    <path d="M 252 191  L 382 191  L 382 364  L 252 364  L 252 191  " fill-rule="nonzero" fill="#ffffff" stroke="none" />
    <path d="M 331.44 232.05  C 325.056 232.05  320.04 227.034  320.04 220.65  C 320.04 214.266  325.056 209.25  331.44 209.25  C 337.824 209.25  342.84 214.266  342.84 220.65  C 342.84 227.034  337.824 232.05  331.44 232.05  " fill-rule="nonzero" fill="#cccccc" stroke="none" />
    <path d="M 256 360  L 256 269.25  L 286.5 228  L 329.2 261  L 353.6 252.75  L 378 261  L 378 360  L 256 360  " fill-rule="nonzero" fill="#169bd5" stroke="none" />
  </g>
</svg>