<?xml version="1.0" encoding="utf-8"?>
<svg version="1.1" xmlns:xlink="http://www.w3.org/1999/xlink" width="60px" height="60px" xmlns="http://www.w3.org/2000/svg">
  <g transform="matrix(1 0 0 1 -319 -7 )">
    <path d="M 319 7  L 379 7  L 379 67  L 319 67  L 319 7  " fill-rule="nonzero" fill="#cccccc" stroke="none" />
    <path d="M 323 11  L 375 11  L 375 63  L 323 63  L 323 11  " fill-rule="nonzero" fill="#ffffff" stroke="none" />
    <path d="M 354.7 25  C 352.18 25  350.2 23.02  350.2 20.5  C 350.2 17.98  352.18 16  354.7 16  C 357.22 16  359.2 17.98  359.2 20.5  C 359.2 23.02  357.22 25  354.7 25  " fill-rule="nonzero" fill="#cccccc" stroke="none" />
    <path d="M 325 62  L 325 35.05  L 337.25 22.8  L 354.4 32.6  L 364.2 30.15  L 374 32.6  L 374 62  L 325 62  " fill-rule="nonzero" fill="#169bd5" stroke="none" />
  </g>
</svg>